<?xml version="1.0" standalone="no"?>
<!DOCTYPE svg PUBLIC "-//W3C//DTD SVG 20010904//EN"
 "http://www.w3.org/TR/2001/REC-SVG-20010904/DTD/svg10.dtd">
<svg version="1.0" xmlns="http://www.w3.org/2000/svg"
 width="1170.000000pt" height="1170.000000pt" viewBox="0 0 1170.000000 1170.000000"
 preserveAspectRatio="xMidYMid meet">
<metadata>
Created by potrace 1.14, written by Peter Selinger 2001-2017
</metadata>
<g transform="translate(0.000000,1170.000000) scale(0.100000,-0.100000)"
fill="#000000" stroke="none">
<path d="M4630 7205 c-108 -22 -134 -31 -211 -71 -91 -47 -192 -147 -233 -230
-15 -33 -32 -67 -37 -76 -5 -10 -9 -29 -9 -42 0 -14 -4 -28 -10 -31 -14 -9
-13 -247 1 -299 40 -146 147 -283 294 -377 22 -14 58 -37 80 -51 22 -14 60
-36 85 -49 25 -13 47 -27 48 -31 2 -5 8 -8 13 -8 6 0 58 -32 117 -71 287 -191
443 -441 514 -824 30 -161 32 -536 5 -685 -34 -181 -59 -269 -117 -415 -23
-59 -106 -213 -120 -225 -3 -3 -17 -21 -30 -40 -57 -83 -253 -260 -288 -260
-6 0 -12 -3 -14 -7 -4 -11 -73 -42 -143 -65 -140 -45 -323 -60 -464 -37 -36 5
-97 15 -136 21 -38 5 -81 14 -95 18 -14 4 -45 13 -70 20 -25 7 -54 16 -65 20
-11 5 -37 14 -57 21 -21 7 -38 17 -38 21 0 4 -7 8 -15 8 -8 0 -23 4 -33 9 -9
5 -24 12 -32 15 -22 8 -142 87 -181 118 -30 24 -32 29 -19 42 8 8 65 33 125
57 98 38 254 113 370 179 71 40 227 151 325 231 227 186 442 486 500 699 7 25
16 58 21 74 12 40 11 283 -1 291 -5 3 -10 15 -10 26 0 10 -4 19 -10 19 -5 0
-10 6 -10 14 0 20 -37 87 -79 142 -45 60 -155 153 -213 181 -122 59 -272 93
-413 93 -85 0 -251 -24 -320 -46 -66 -21 -228 -101 -254 -125 -11 -11 -23 -19
-27 -19 -16 0 -189 -181 -225 -235 -167 -256 -242 -598 -194 -896 28 -177 57
-278 107 -367 34 -62 29 -66 -84 -80 -57 -7 -137 -12 -178 -12 -113 0 -404 34
-510 60 -25 6 -62 13 -83 17 -21 3 -40 10 -43 14 -3 5 -14 9 -25 9 -12 0 -87
22 -167 49 -81 26 -167 54 -192 61 -25 7 -72 21 -105 31 -266 79 -572 116
-758 89 -48 -6 -90 -16 -93 -21 -7 -12 150 -169 236 -236 73 -56 167 -123 174
-123 3 0 29 -14 58 -32 158 -94 382 -180 598 -229 130 -29 187 -37 385 -53
280 -23 569 4 870 81 55 14 110 27 122 30 15 4 40 -10 90 -49 96 -77 147 -110
228 -147 39 -18 78 -36 87 -42 10 -5 27 -9 37 -9 11 0 22 -4 25 -9 3 -5 18
-12 33 -15 16 -4 46 -12 68 -17 68 -17 145 -29 265 -39 63 -5 128 -12 143 -15
47 -8 313 22 387 45 14 4 45 13 70 21 25 7 49 16 54 21 6 4 16 8 24 8 19 0
185 84 242 123 247 167 450 436 550 727 7 19 16 44 20 55 5 11 11 34 15 50 3
17 11 48 16 70 59 228 59 689 -1 925 -6 25 -14 57 -17 73 -3 15 -9 30 -14 33
-5 3 -9 13 -9 22 0 9 -14 44 -30 77 -17 33 -30 63 -30 66 0 10 -79 137 -115
184 -130 172 -257 272 -530 420 -174 94 -274 170 -343 258 -60 78 -70 99 -88
172 -49 209 41 413 221 499 80 39 115 46 218 46 174 0 339 -61 504 -188 24
-17 33 -20 33 -10 0 24 -123 114 -226 166 -89 44 -131 58 -286 92 -62 13 -197
11 -278 -5z m-465 -1709 c111 -27 145 -39 235 -79 189 -87 328 -289 281 -409
-5 -13 -15 -43 -21 -68 -23 -81 -117 -264 -177 -345 -33 -44 -90 -111 -127
-148 -85 -85 -279 -232 -371 -281 -102 -55 -147 -78 -170 -86 -11 -5 -36 -15
-55 -23 -74 -32 -168 -66 -240 -87 -41 -12 -84 -26 -95 -30 -11 -5 -33 -11
-50 -15 -16 -3 -48 -10 -70 -16 -70 -17 -156 -28 -171 -22 -17 6 -53 83 -89
189 -76 226 -73 582 6 807 64 182 185 349 319 440 25 17 47 34 50 37 9 12 195
99 225 106 17 4 35 10 40 13 6 3 44 14 85 23 89 20 298 17 395 -6z"/>
<path d="M9415 6852 c-40 -5 -94 -47 -111 -88 -12 -28 -14 -222 -14 -1182 l0
-1148 27 -41 c14 -23 37 -47 50 -54 38 -20 117 -15 152 11 53 37 61 65 61 208
0 71 3 131 6 135 9 9 29 -14 53 -60 92 -182 209 -276 409 -329 61 -16 230 -19
279 -4 18 6 50 15 71 21 236 68 415 278 490 572 23 93 26 119 25 302 -1 181
-3 209 -26 297 -32 120 -91 249 -151 327 -43 56 -155 162 -179 170 -7 2 -23
11 -37 21 -70 47 -205 80 -332 80 -114 0 -176 -14 -273 -60 -104 -51 -192
-130 -254 -231 -26 -43 -51 -76 -55 -72 -3 3 -6 227 -6 497 0 535 -1 544 -57
596 -29 28 -71 38 -128 32z m770 -838 c69 -10 172 -84 235 -168 40 -56 110
-194 110 -219 0 -9 4 -18 9 -21 5 -3 11 -20 14 -38 3 -18 10 -59 16 -90 5 -31
12 -62 16 -67 13 -22 6 -404 -10 -481 -36 -186 -59 -247 -148 -387 -45 -71
-121 -128 -230 -172 -36 -14 -178 -14 -214 0 -130 53 -201 103 -261 183 -43
57 -90 140 -109 196 -16 44 -18 850 -3 878 5 9 18 35 28 57 44 91 59 113 131
186 130 131 241 169 416 143z"/>
<path d="M2177 6833 c-43 -7 -93 -63 -101 -113 -8 -51 -8 -2238 0 -2295 7 -47
17 -62 61 -93 44 -31 132 -31 174 1 63 45 59 -33 59 1242 0 1058 -2 1169 -16
1194 -28 47 -106 75 -177 64z"/>
<path d="M5928 6833 c-37 -6 -85 -55 -98 -101 -13 -47 -14 -2260 0 -2317 6
-27 21 -51 46 -72 33 -30 44 -33 99 -33 56 0 65 3 97 33 20 17 41 47 47 66 7
23 11 218 11 603 l0 570 31 56 c91 166 249 303 401 349 83 24 195 20 260 -9
85 -39 150 -120 181 -227 7 -23 13 -268 17 -691 5 -632 6 -656 25 -688 26 -43
66 -62 127 -62 81 0 132 43 146 122 4 24 7 304 7 623 -2 516 -4 587 -19 647
-33 127 -89 211 -190 282 -94 68 -166 88 -316 88 -113 0 -134 -3 -216 -31 -50
-17 -120 -47 -155 -68 -79 -47 -197 -159 -247 -236 -21 -31 -42 -54 -45 -50
-4 3 -7 235 -7 515 0 279 -4 516 -9 526 -5 9 -14 29 -21 44 -8 16 -23 34 -34
41 -24 16 -98 26 -138 20z"/>
<path d="M11236 6833 c-43 -7 -92 -57 -105 -108 -16 -62 -15 -2254 0 -2310 6
-22 26 -54 46 -72 31 -30 40 -33 99 -33 61 0 66 2 103 39 33 33 40 48 46 93 3
29 5 559 3 1178 -3 1068 -4 1126 -21 1152 -34 50 -97 72 -171 61z"/>
<path d="M935 6129 c-193 -39 -344 -105 -441 -194 -49 -45 -35 -45 27 0 129
92 275 143 441 152 180 9 291 -27 390 -128 78 -80 114 -163 133 -309 6 -40 4
-48 -22 -72 -34 -32 -141 -89 -203 -108 -25 -7 -49 -17 -55 -22 -5 -4 -18 -8
-29 -8 -21 0 -80 -17 -108 -31 -10 -5 -29 -9 -42 -9 -14 0 -28 -4 -31 -10 -3
-5 -19 -10 -35 -10 -16 0 -32 -4 -35 -10 -3 -5 -19 -10 -34 -10 -15 0 -31 -4
-36 -8 -6 -5 -35 -14 -65 -22 -30 -7 -62 -17 -70 -21 -8 -4 -53 -26 -100 -47
-97 -44 -175 -100 -220 -157 -97 -122 -102 -312 -13 -481 23 -43 128 -144 170
-163 21 -10 35 -16 96 -40 34 -14 148 -31 203 -31 46 0 153 19 199 35 159 55
298 162 389 299 21 32 43 55 49 53 8 -2 14 -48 17 -133 5 -138 12 -160 59
-193 60 -43 169 -17 199 48 16 32 17 1206 2 1216 -5 3 -10 19 -10 35 0 16 -4
32 -10 35 -5 3 -10 13 -10 21 0 26 -77 130 -132 178 -150 132 -436 194 -673
145z m555 -926 l0 -338 -44 -73 c-81 -136 -181 -231 -305 -289 -49 -23 -69
-26 -156 -26 -111 0 -151 12 -210 65 -118 103 -168 311 -112 465 46 127 106
184 287 274 107 53 118 58 180 79 19 7 54 21 77 31 24 11 50 19 58 19 8 0 15
3 15 8 0 4 19 15 43 25 23 9 62 35 87 57 84 73 80 86 80 -297z"/>
<path d="M8220 6075 c-188 -38 -330 -115 -456 -247 -67 -70 -104 -120 -143
-193 -18 -33 -36 -64 -40 -70 -4 -5 -13 -28 -20 -50 -7 -22 -16 -49 -21 -60
-8 -21 -20 -66 -39 -148 -6 -26 -11 -119 -11 -207 0 -88 5 -181 11 -207 20
-85 32 -128 41 -138 4 -5 8 -17 8 -27 0 -10 5 -18 10 -18 6 0 10 -7 10 -16 0
-23 96 -158 140 -196 61 -54 80 -69 106 -80 13 -6 24 -15 24 -20 0 -4 5 -8 10
-8 10 0 87 -32 122 -51 10 -5 26 -9 36 -9 10 0 22 -4 27 -9 26 -24 291 -38
380 -21 60 12 182 45 220 60 84 32 209 106 261 155 42 39 13 35 -43 -6 -55
-41 -142 -89 -162 -89 -6 0 -11 -4 -11 -10 0 -5 -11 -10 -24 -10 -14 0 -27 -4
-30 -9 -3 -5 -20 -11 -38 -14 -18 -3 -73 -13 -123 -22 -77 -14 -102 -15 -175
-4 -47 6 -96 16 -110 22 -14 5 -35 13 -47 18 -62 24 -84 40 -158 115 -105 105
-173 226 -174 310 -1 35 4 45 32 68 49 42 156 93 254 122 48 14 117 35 153 46
36 11 91 26 123 34 295 72 504 191 566 321 13 27 27 56 32 65 13 25 11 215 -2
257 -58 180 -198 307 -381 347 -78 17 -271 16 -358 -1z m195 -82 c100 -36 196
-160 224 -291 34 -160 -5 -298 -110 -398 -78 -72 -177 -128 -370 -205 -165
-66 -258 -115 -320 -166 -16 -14 -33 -22 -37 -18 -13 13 -17 349 -5 470 34
349 162 556 378 614 91 24 158 22 240 -6z"/>
<path d="M6460 4207 c0 -14 6 -27 13 -30 8 -3 73 2 145 11 72 9 134 13 138 9
12 -11 -355 -670 -443 -794 -46 -66 -43 -77 14 -42 39 24 66 22 158 -11 50
-19 81 -22 185 -22 210 1 352 51 481 170 140 130 219 290 219 447 0 88 -22
137 -83 191 -87 76 -215 96 -527 82 -176 -9 -227 -7 -277 8 -20 5 -23 3 -23
-19z m627 -23 c66 -18 133 -68 158 -119 43 -89 25 -252 -45 -391 -94 -187
-278 -313 -482 -330 -118 -10 -227 22 -262 78 -12 20 3 54 121 273 148 272
291 503 315 508 36 7 138 -3 195 -19z"/>
<path d="M8575 3836 c-17 -7 -36 -25 -43 -40 -6 -14 -20 -26 -29 -26 -28 -1
-101 -37 -144 -71 -22 -17 -67 -67 -100 -110 -61 -81 -174 -178 -244 -210 -54
-25 -110 -24 -135 1 -41 41 -16 196 46 277 34 45 81 73 121 73 40 0 63 -23 63
-63 l0 -32 26 26 c49 49 28 119 -35 119 -70 -1 -188 -92 -257 -199 -85 -130
-260 -237 -350 -215 -39 10 -56 59 -44 124 14 75 21 82 91 97 102 21 179 87
179 155 0 57 -92 46 -178 -21 -98 -78 -172 -206 -174 -302 -2 -74 22 -92 112
-87 80 4 170 44 252 112 l57 46 -6 -49 c-5 -46 -3 -52 26 -82 31 -30 35 -31
95 -27 77 7 158 47 239 119 30 27 57 49 59 49 3 0 -2 -26 -11 -59 -14 -54 -14
-61 2 -85 36 -54 127 -27 217 64 46 47 118 152 133 194 3 6 15 2 28 -10 50
-44 99 -55 155 -34 15 6 28 9 30 7 2 -1 -21 -44 -51 -94 -30 -51 -55 -98 -56
-105 -3 -25 1 -36 16 -41 10 -4 35 29 87 115 82 137 151 213 221 247 l47 23
40 -20 40 -19 22 35 c21 33 21 35 3 48 -33 24 -108 -7 -199 -81 -31 -25 -58
-45 -60 -45 -2 0 8 22 22 48 26 49 25 82 -2 82 -8 0 -35 -36 -60 -80 -50 -85
-81 -110 -138 -110 -71 0 -105 59 -94 162 3 32 10 67 16 78 14 25 1 31 -35 16z
m-917 -113 c3 -26 -4 -41 -35 -74 -32 -34 -47 -42 -86 -46 -26 -3 -47 -2 -47
2 0 15 73 116 98 135 39 29 66 22 70 -17z m866 15 c19 -72 -13 -163 -97 -273
-53 -70 -96 -105 -130 -105 -62 0 -28 138 69 276 76 108 144 152 158 102z"/>
</g>
</svg>
